<svg xmlns="http://www.w3.org/2000/svg" viewBox="0 0 600 400" font-family="Inter, Arial, sans-serif">
  <rect width="600" height="400" fill="#ecfeff"/>
  <rect x="20" y="20" width="560" height="360" rx="14" fill="#ffffff"/>
  <rect x="20" y="20" width="560" height="34" rx="14" fill="#cffafe"/>
  <circle cx="42" cy="37" r="5" fill="#f87171"/><circle cx="60" cy="37" r="5" fill="#fbbf24"/><circle cx="78" cy="37" r="5" fill="#34d399"/>
  <!-- RTL header (Urdu blog) -->
  <rect x="430" y="72" width="130" height="16" rx="8" fill="#0e7490"/>
  <rect x="40" y="74" width="40" height="10" rx="5" fill="#155e75" opacity="0.5"/>
  <rect x="92" y="74" width="40" height="10" rx="5" fill="#155e75" opacity="0.5"/>
  <!-- featured -->
  <rect x="40" y="108" width="520" height="120" rx="12" fill="#a5f3fc"/>
  <rect x="360" y="130" width="180" height="14" rx="7" fill="#0e7490"/>
  <rect x="320" y="156" width="220" height="9" rx="4" fill="#155e75" opacity="0.6"/>
  <rect x="360" y="174" width="180" height="9" rx="4" fill="#155e75" opacity="0.6"/>
  <!-- article rows (RTL: text right, thumb left) -->
  <g>
    <rect x="40" y="244" width="100" height="96" rx="10" fill="#67e8f9"/>
    <rect x="360" y="252" width="180" height="13" rx="6" fill="#0e7490"/>
    <rect x="300" y="276" width="240" height="9" rx="4" fill="#94a3b8"/>
    <rect x="340" y="294" width="200" height="9" rx="4" fill="#94a3b8"/>
    <rect x="420" y="316" width="120" height="9" rx="4" fill="#cbd5e1"/>
  </g>
  <rect x="160" y="244" width="180" height="96" rx="10" fill="#f0fdfa" stroke="#cffafe"/>
</svg>
