<svg xmlns="http://www.w3.org/2000/svg" viewBox="0 0 600 400" font-family="Inter, Arial, sans-serif">
  <rect width="600" height="400" fill="#0f172a"/>
  <rect x="20" y="20" width="560" height="360" rx="14" fill="#ffffff"/>
  <!-- browser chrome -->
  <rect x="20" y="20" width="560" height="34" rx="14" fill="#eef2f7"/>
  <circle cx="42" cy="37" r="5" fill="#f87171"/><circle cx="60" cy="37" r="5" fill="#fbbf24"/><circle cx="78" cy="37" r="5" fill="#34d399"/>
  <!-- sidebar -->
  <rect x="20" y="54" width="120" height="326" fill="#4f46e5"/>
  <rect x="38" y="78" width="84" height="12" rx="6" fill="#ffffff" opacity="0.9"/>
  <rect x="38" y="110" width="84" height="9" rx="4" fill="#ffffff" opacity="0.45"/>
  <rect x="38" y="130" width="84" height="9" rx="4" fill="#ffffff" opacity="0.45"/>
  <rect x="38" y="150" width="84" height="9" rx="4" fill="#ffffff" opacity="0.7"/>
  <rect x="38" y="170" width="84" height="9" rx="4" fill="#ffffff" opacity="0.45"/>
  <!-- stat cards -->
  <rect x="156" y="72" width="124" height="64" rx="10" fill="#eef2ff"/>
  <rect x="296" y="72" width="124" height="64" rx="10" fill="#e0e7ff"/>
  <rect x="436" y="72" width="128" height="64" rx="10" fill="#eef2ff"/>
  <rect x="170" y="88" width="50" height="10" rx="5" fill="#6366f1"/>
  <rect x="170" y="108" width="80" height="14" rx="7" fill="#312e81"/>
  <rect x="310" y="88" width="50" height="10" rx="5" fill="#6366f1"/>
  <rect x="310" y="108" width="80" height="14" rx="7" fill="#312e81"/>
  <rect x="450" y="88" width="50" height="10" rx="5" fill="#6366f1"/>
  <rect x="450" y="108" width="90" height="14" rx="7" fill="#312e81"/>
  <!-- chart -->
  <rect x="156" y="156" width="408" height="200" rx="12" fill="#f8fafc" stroke="#e2e8f0"/>
  <rect x="190" y="300" width="34" height="40" rx="4" fill="#a5b4fc"/>
  <rect x="240" y="270" width="34" height="70" rx="4" fill="#818cf8"/>
  <rect x="290" y="240" width="34" height="100" rx="4" fill="#6366f1"/>
  <rect x="340" y="210" width="34" height="130" rx="4" fill="#4f46e5"/>
  <rect x="390" y="250" width="34" height="90" rx="4" fill="#818cf8"/>
  <rect x="440" y="220" width="34" height="120" rx="4" fill="#6366f1"/>
  <rect x="490" y="280" width="34" height="60" rx="4" fill="#a5b4fc"/>
</svg>
