<svg xmlns="http://www.w3.org/2000/svg" viewBox="0 0 600 400" font-family="Inter, Arial, sans-serif">
  <rect width="600" height="400" fill="#fffbeb"/>
  <rect x="20" y="20" width="560" height="360" rx="14" fill="#fff7ed"/>
  <!-- 3 phone frames -->
  <g>
    <rect x="70" y="60" width="130" height="280" rx="22" fill="#1f2937"/>
    <rect x="80" y="74" width="110" height="252" rx="12" fill="#ffffff"/>
    <rect x="80" y="74" width="110" height="70" rx="12" fill="#f59e0b"/>
    <rect x="94" y="98" width="60" height="10" rx="5" fill="#fff"/>
    <rect x="94" y="158" width="82" height="36" rx="8" fill="#fed7aa"/>
    <rect x="94" y="204" width="82" height="36" rx="8" fill="#fde68a"/>
    <rect x="94" y="250" width="82" height="36" rx="8" fill="#fed7aa"/>
    <rect x="110" y="304" width="50" height="8" rx="4" fill="#fb923c"/>
  </g>
  <g>
    <rect x="235" y="48" width="130" height="304" rx="22" fill="#111827"/>
    <rect x="245" y="62" width="110" height="276" rx="12" fill="#ffffff"/>
    <circle cx="300" cy="120" r="34" fill="#fdba74"/>
    <rect x="262" y="170" width="76" height="12" rx="6" fill="#9a3412"/>
    <rect x="270" y="192" width="60" height="8" rx="4" fill="#d97706" opacity="0.6"/>
    <rect x="262" y="222" width="76" height="44" rx="10" fill="#ffedd5"/>
    <rect x="262" y="276" width="76" height="44" rx="10" fill="#fef3c7"/>
  </g>
  <g>
    <rect x="400" y="60" width="130" height="280" rx="22" fill="#1f2937"/>
    <rect x="410" y="74" width="110" height="252" rx="12" fill="#ffffff"/>
    <rect x="424" y="92" width="82" height="10" rx="5" fill="#92400e"/>
    <rect x="424" y="118" width="82" height="60" rx="10" fill="#f59e0b"/>
    <rect x="424" y="188" width="38" height="60" rx="8" fill="#fed7aa"/>
    <rect x="468" y="188" width="38" height="60" rx="8" fill="#fde68a"/>
    <rect x="424" y="258" width="82" height="14" rx="7" fill="#fb923c"/>
  </g>
</svg>
