<svg xmlns="http://www.w3.org/2000/svg" viewBox="0 0 600 400" font-family="Inter, Arial, sans-serif">
  <rect width="600" height="400" fill="#eef2ff"/>
  <rect x="20" y="20" width="560" height="360" rx="14" fill="#ffffff"/>
  <rect x="20" y="20" width="560" height="34" rx="14" fill="#e0e7ff"/>
  <circle cx="42" cy="37" r="5" fill="#f87171"/><circle cx="60" cy="37" r="5" fill="#fbbf24"/><circle cx="78" cy="37" r="5" fill="#34d399"/>
  <!-- hero with avatar -->
  <rect x="40" y="70" width="520" height="110" rx="12" fill="#312e81"/>
  <circle cx="110" cy="125" r="34" fill="#a5b4fc"/>
  <rect x="170" y="104" width="200" height="16" rx="8" fill="#ffffff"/>
  <rect x="170" y="132" width="150" height="10" rx="5" fill="#c7d2fe"/>
  <rect x="170" y="152" width="90" height="14" rx="7" fill="#6366f1"/>
  <!-- project grid -->
  <rect x="40" y="200" width="160" height="150" rx="12" fill="#c7d2fe"/>
  <rect x="220" y="200" width="160" height="150" rx="12" fill="#a5b4fc"/>
  <rect x="400" y="200" width="160" height="150" rx="12" fill="#c7d2fe"/>
  <rect x="56" y="318" width="90" height="10" rx="5" fill="#312e81"/>
  <rect x="236" y="318" width="90" height="10" rx="5" fill="#312e81"/>
  <rect x="416" y="318" width="90" height="10" rx="5" fill="#312e81"/>
</svg>
