<svg xmlns="http://www.w3.org/2000/svg" viewBox="0 0 600 400" font-family="Inter, Arial, sans-serif">
  <rect width="600" height="400" fill="#ecfdf5"/>
  <rect x="20" y="20" width="560" height="360" rx="14" fill="#ffffff"/>
  <rect x="20" y="20" width="560" height="34" rx="14" fill="#d1fae5"/>
  <circle cx="42" cy="37" r="5" fill="#f87171"/><circle cx="60" cy="37" r="5" fill="#fbbf24"/><circle cx="78" cy="37" r="5" fill="#34d399"/>
  <!-- hero -->
  <rect x="40" y="70" width="80" height="12" rx="6" fill="#059669"/>
  <rect x="180" y="104" width="240" height="20" rx="10" fill="#064e3b"/>
  <rect x="220" y="136" width="160" height="11" rx="5" fill="#10b981" opacity="0.7"/>
  <rect x="250" y="160" width="100" height="26" rx="13" fill="#059669"/>
  <!-- pricing columns -->
  <g>
    <rect x="60" y="210" width="150" height="150" rx="12" fill="#f0fdf4" stroke="#bbf7d0"/>
    <rect x="80" y="228" width="60" height="10" rx="5" fill="#16a34a"/>
    <rect x="80" y="250" width="90" height="18" rx="9" fill="#064e3b"/>
    <rect x="80" y="284" width="110" height="8" rx="4" fill="#cbd5e1"/>
    <rect x="80" y="300" width="110" height="8" rx="4" fill="#cbd5e1"/>
    <rect x="80" y="328" width="110" height="20" rx="10" fill="#bbf7d0"/>
  </g>
  <g>
    <rect x="225" y="196" width="150" height="164" rx="12" fill="#059669"/>
    <rect x="245" y="216" width="60" height="10" rx="5" fill="#d1fae5"/>
    <rect x="245" y="238" width="90" height="18" rx="9" fill="#ffffff"/>
    <rect x="245" y="272" width="110" height="8" rx="4" fill="#a7f3d0"/>
    <rect x="245" y="288" width="110" height="8" rx="4" fill="#a7f3d0"/>
    <rect x="245" y="320" width="110" height="20" rx="10" fill="#ffffff"/>
  </g>
  <g>
    <rect x="390" y="210" width="150" height="150" rx="12" fill="#f0fdf4" stroke="#bbf7d0"/>
    <rect x="410" y="228" width="60" height="10" rx="5" fill="#16a34a"/>
    <rect x="410" y="250" width="90" height="18" rx="9" fill="#064e3b"/>
    <rect x="410" y="284" width="110" height="8" rx="4" fill="#cbd5e1"/>
    <rect x="410" y="300" width="110" height="8" rx="4" fill="#cbd5e1"/>
    <rect x="410" y="328" width="110" height="20" rx="10" fill="#bbf7d0"/>
  </g>
</svg>
